<svg width="66" height="66" viewBox="0 0 66 66" fill="none" xmlns="http://www.w3.org/2000/svg">
<path fill-rule="evenodd" clip-rule="evenodd" d="M0.000328064 22.0165L13.6784 31.1121L30.0943 20.1971L23.2556 15.6469L32.1462 9.73551L51.2988 22.4704L19.8347 43.3918L26.6758 47.9402L65.6622 22.0165L32.8292 0.183594L0.000328064 22.0165ZM65.6622 43.8481L32.8292 65.6792L0.000328064 43.8481L38.9849 17.922L45.8272 22.4704L14.3637 43.393L33.5128 56.1285L42.4052 50.2171L35.5676 45.6681L51.9812 34.7508L65.6622 43.8481ZM65.6622 9.28037L58.8205 13.8294L51.9812 9.28037L65.6622 0.183594V9.28037ZM0.000328064 56.5836V65.6792L13.6784 56.5836L6.83965 52.0364L0.000328064 56.5836Z" fill="#FCFC30"/>
</svg>
